<svg xmlns:xlink="http://www.w3.org/1999/xlink" xmlns="http://www.w3.org/2000/svg" id="Livello_1" viewBox="0 0 100 100" width="100" height="100"><defs><style>.cls-1{fill:#ff4758;}.cls-2{fill:#1a1a1a;}</style></defs><g><path class="cls-2" d="M83.17,50c0-4.57-.91-8.99-2.72-13.15,0,0,0,0,0,0-2.04-4.72-5.21-8.96-9.18-12.28-5.95-4.98-13.5-7.73-21.27-7.73-6.22,0-12.29,1.74-17.55,5.03h0c-6.11,3.82-10.89,9.62-13.45,16.33,0,0,0,0,0,0-1.44,3.79-2.17,7.76-2.17,11.8,0,9.6,4.15,18.72,11.4,25.02,6.03,5.25,13.76,8.15,21.77,8.15,11.63,0,22.56-6.22,28.5-16.21l.5-.76c.09-.09,.15-.18,.2-.29,.64-1.33,.96-2.01,1.26-2.76,.63-1.46,1.16-3,1.59-4.58h0s0,0,0,0c.33-1.24,.59-2.52,.77-3.81h0c.23-1.6,.35-3.21,.35-4.76Zm-2.76,7.94c-.49,.58-.82,.63-.91,.63-.26,0-.5-.33-.65-.65-.43-.92-.43-2.42,.33-3.33,.21-.25,.54-.55,.9-.55s.73,.28,.98,.73c-.16,1.07-.38,2.14-.65,3.17Zm-27.93,15.36c-.49,0-1.01-.36-1.54-1.08-1.15-1.55-1.06-4.01-.97-6.38,.06-1.57,.12-3.2-.19-4.59-.98-4.43-4.08-4.65-7.08-4.86-2.24-.16-3.55-1.08-3.9-2.75-.64-3.04,1.95-7.4,4.43-8.71,.21-.11,.46-.2,.73-.28,.51-.14,1.1-.22,1.67-.22,.31,0,.6,.02,.86,.07,.71,.11,.92,.34,1.33,.8,.25,.27,.56,.6,1.01,.93,.94,.68,2.96,1.15,4.91,1.15,1.28,0,3.56-.22,4.42-1.69,.38-.65,.43-1.57,.14-2.54-.3-.99-.88-1.79-1.57-2.13-.36-.17-.77-.26-1.22-.26-.72,0-1.45,.22-2.16,.42-.56,.17-1.15,.34-1.57,.34h-.08c-.58-.04-1.15-.26-1.76-.49-.91-.35-1.88-.71-3.01-.56-.78,.11-1.52,.55-2.23,.98-.5,.3-1.02,.61-1.47,.74-.28,.08-.5,.09-.69,.04-.05-.01-.09-.03-.13-.04,.27-.5,1.42-1.48,1.99-1.97,.78-.66,1.45-1.24,1.76-1.75,.16-.26,.16-.59,.02-.86-.03-.05-.05-.09-.09-.13,.22,.09,.47,.08,.69-.02,.73-.34,1.14-.84,1.54-1.37,.57-.76,.83-1.61,1.06-2.37,.3-1.01,.54-1.81,1.41-2.34,.53-.32,1.14-.47,1.92-.47,.68,0,1.4,.11,2.15,.23,.89,.14,1.81,.28,2.7,.23,2.34-.12,4.38-1.5,6.35-2.83,1.93-1.31,3.76-2.54,5.72-2.54,.22,0,.45,.02,.67,.05,3.64,3.09,6.56,7.02,8.47,11.37,.03,.25,.04,.48,.04,.68-.06,3.08,0,5.28,.22,7.61,.2,2.15-.19,2.64-2.14,3.99-.36,.25-.79,.62-1.23,1.01-.91,.79-2.28,1.98-3.09,1.98-.03,0-.06,0-.09,0-1.13-.17-2.41-2.05-3.44-3.55-.72-1.06-1.4-2.05-2.1-2.66-.85-.73-1.32-1-1.77-1-.32,0-.61,.14-.8,.39-.38,.49-.22,1.11,0,1.96,.13,.5,.27,1.06,.3,1.52,.05,1.07-.13,1.39-.21,1.47-.19,.2-.85,.21-1.55,.21-.29,0-.59,0-.9,.01-.05-.02-.13-.06-.18-.08-.19-.1-.43-.22-.72-.22-.38,0-.72,.21-.88,.53-.25,.47-.17,.61,.66,1.92,.22,.34,.54,.85,.62,1,.92,2.6-.47,5.13-1.82,7.58l-.3,.54c-.22,.41-.52,1.11-.9,2-1.14,2.69-3.81,9-6.04,9Zm-6.48-30.6c.43-.25,.85-.47,1.19-.51,.71-.1,1.4,.17,2.15,.46,.71,.27,1.44,.55,2.28,.6,.71,.04,1.5-.18,2.24-.4,.82-.24,1.72-.46,2.11-.27,.21,.1,.5,.5,.67,1.07,.16,.55,.13,.99,.02,1.16-.3,.51-1.44,.83-2.92,.83-1.72,0-3.33-.42-3.89-.82-.31-.22-.52-.46-.75-.7-.49-.53-1.04-1.12-2.33-1.33-.24-.04-.5-.07-.77-.08Zm-1.71-7.25c.56,0,1.15,.63,1.3,1.37,.03,.14,.09,.26,.17,.37-.09-.04-.19-.06-.29-.06-1.76-.08-2.27-.28-2.37-.42,0,0-.02-.23,.41-.79,.24-.32,.51-.48,.78-.48Zm-11.9-11.48s.01,.03,.02,.04c.18,.35,.49,.78,.8,1.23,.36,.51,.85,1.21,.95,1.52,.11,.38,.08,.51,.09,.51-.04,.05-.21,.15-.34,.23-.37,.22-.89,.53-1.31,1.16-.99,1.47-.58,2.25,.06,3.12,.19,.26,.39,.53,.56,.89,.53,1.09-.2,3.59-1.53,4.3-.13,.07-.22,.08-.27,.08-.17,0-.4-.1-.67-.22-.41-.18-.91-.4-1.58-.41-2.15,0-3.02,1.51-3.78,2.84-.08,.15-.17,.3-.26,.45q-.81,1.37-1.85,1.71c-.5,.16-1.66,.53-.62,6.47,.44,2.51,1.54,3.85,3.41,5.46l.34,.29c2.4,2.05,5.7,4.85,6.39,7.89,.36,1.58-.46,2.86-1.41,4.35-.38,.6-.77,1.21-1.1,1.87-1.13,2.31-.86,4.32-.38,6.37-.18-.15-.35-.29-.52-.44-2.39-2.11-3.74-4.71-4.39-8.41-.29-1.63-1-3.15-1.69-4.61-.87-1.86-1.7-3.61-1.61-5.45,.03-.59,.11-1.18,.18-1.75,.14-1.11,.29-2.25,.14-3.51-.15-1.22-.48-2.38-.8-3.51-.24-.86-.47-1.68-.63-2.51-.3-1.62-.29-3.36,.04-5.19,2.3-5.97,6.44-11.17,11.74-14.76Zm-13.37,20.77c.16,.74,.36,1.46,.56,2.17,.32,1.11,.61,2.17,.75,3.25,.13,1.04,0,2.03-.13,3.07-.08,.6-.16,1.23-.19,1.88-.11,2.27,.84,4.31,1.77,6.28,.67,1.42,1.3,2.76,1.55,4.17,.09,.52,.2,1.03,.32,1.51-3.26-5.04-5.05-10.95-5.05-17.08,0-1.77,.15-3.52,.45-5.25Zm30.98,36.69c-6.41,0-12.64-1.97-17.86-5.58-.09-.41-.19-.82-.29-1.21-.56-2.26-1-4.04,.02-6.13,.28-.57,.63-1.12,1-1.7,1.01-1.59,2.15-3.38,1.63-5.67-.82-3.6-4.37-6.62-6.96-8.83l-.34-.29c-1.64-1.4-2.48-2.43-2.83-4.44-.34-1.92-.48-3.95-.33-4.59,1.41-.49,1.7-.91,2.58-2.4,.09-.16,.18-.31,.27-.47,.76-1.32,1.17-1.96,2.29-1.96h0c.27,0,.54,.12,.85,.26,.39,.17,.83,.37,1.38,.37,.37,0,.74-.1,1.09-.28,2.24-1.19,3.19-4.73,2.28-6.59-.25-.51-.51-.87-.73-1.16q-.4-.54-.02-1.12c.21-.31,.46-.46,.76-.64,.78-.47,1.51-1.06,1.03-2.72-.17-.59-.67-1.3-1.2-2.04-.27-.38-.55-.78-.68-1.03-.02-.04-.04-.11-.06-.18,4.86-2.91,10.41-4.46,16.1-4.46,6.55,0,12.94,2.07,18.24,5.85-1.9,.41-3.61,1.55-5.28,2.67-1.85,1.25-3.61,2.44-5.46,2.53-.73,.04-1.51-.09-2.35-.22-.79-.12-1.6-.25-2.42-.25-1.1,0-2.02,.24-2.82,.72-1.44,.87-1.83,2.18-2.17,3.33-.2,.67-.39,1.31-.78,1.82-.06,.08-.11,.15-.16,.21-.57-.92-1.52-1.52-2.51-1.52-.82,0-1.58,.41-2.16,1.16-.75,.97-.96,1.84-.62,2.57,.35,.74,1.14,1.09,2,1.26-.08,.07-.15,.13-.22,.19-1.49,1.27-2.89,2.47-2.63,3.72,.08,.38,.34,.87,1.1,1.18-2.84,1.94-5.42,6.59-4.67,10.21,.3,1.42,1.4,3.83,5.47,4.13,3.41,.24,4.86,.63,5.5,3.5,.26,1.17,.21,2.61,.15,4.14-.1,2.68-.2,5.44,1.31,7.49,.88,1.18,1.87,1.78,2.93,1.78,3.12,0,5.48-4.97,7.64-10.06,.34-.81,.64-1.51,.82-1.85l.29-.54c1.47-2.67,3.14-5.71,1.91-9.07-.05-.12-.13-.27-.44-.77,.08,0,.15,0,.23,0,1.08,0,2.1,0,2.8-.75,.54-.57,.75-1.42,.69-2.76-.02-.33-.07-.67-.14-1,.42,.49,.87,1.15,1.34,1.85,1.28,1.88,2.73,4.01,4.62,4.29,.11,.02,.23,.03,.35,.03h0c1.46,0,2.93-1.28,4.23-2.41,.41-.36,.8-.69,1.08-.89,2.17-1.51,3.16-2.55,2.88-5.58-.08-.88-.14-1.74-.18-2.64,.54,2.32,.82,4.69,.82,7.11,0,.86-.05,1.75-.13,2.63-.38-.21-.79-.32-1.22-.32-.57,0-1.43,.2-2.24,1.17-1.26,1.51-1.24,3.75-.57,5.18,.49,1.05,1.3,1.65,2.23,1.65,.07,0,.13-.02,.2-.03-.26,.75-.54,1.48-.85,2.2-.28,.71-.58,1.34-1.17,2.57-.02,.03-.05,.06-.07,.09l-.59,.9c-5.65,9.49-16,15.39-27.03,15.39Z"/><path class="cls-2" d="M27.73,42.95c-.38,0-.76,.12-1.09,.35-1.08,.76-1.21,2.55-.77,3.93,.39,1.22,1.18,1.94,2.12,1.94,.59,0,1.18-.28,1.74-.84,.78-.78,.93-2.09,.39-3.4-.51-1.23-1.42-1.99-2.39-1.99Zm.77,4.16c-.26,.26-.44,.33-.51,.33s-.3-.21-.46-.73c-.3-.95-.09-1.84,.11-1.99,.02-.02,.06-.04,.09-.04,.14,0,.53,.31,.78,.91,.25,.61,.25,1.25,0,1.5Z"/><path class="cls-2" d="M63.15,64.43c-2.2,.24-3.64,4.56-3.53,6.63,.08,1.45,.89,1.97,1.63,1.97,.33,0,.67-.1,1.05-.29,1.32-.7,2.9-5.28,2.45-7.1-.2-.82-.79-1.3-1.6-1.21Zm-1.66,6.77s-.08,.04-.11,.05c-.12-.53,.05-2.06,.79-3.6,.36-.75,.7-1.17,.92-1.36,.05,1.12-.89,4.34-1.61,4.91Z"/><path class="cls-2" d="M38.97,32.51h0c1.17,0,2.3-.94,3.12-1.62l.28-.24c.55-.44,1.24-.78,1.98-1.13,1.16-.56,2.37-1.14,3.19-2.24,.94-1.26,1.24-2.79,.78-3.9-.37-.88-1.17-1.45-2.27-1.6-.23-.03-.47-.05-.73-.05-2.09,0-5.63,1.08-6.59,3.05-.16,.34-.38,.72-.6,1.12-.88,1.58-1.88,3.37-1.26,4.96,.57,1.44,1.56,1.66,2.09,1.66Zm.68-5.77c.24-.42,.46-.83,.65-1.21,.49-1,3.07-2.07,5.02-2.07,.18,0,.35,.01,.5,.03,.71,.1,.85,.44,.9,.55,.22,.53-.02,1.45-.57,2.19-.57,.77-1.53,1.23-2.55,1.72-.79,.38-1.61,.77-2.32,1.34-.1,.08-.2,.16-.31,.25-.51,.43-1.46,1.22-2.01,1.22-.06,0-.26,0-.48-.56-.32-.82,.5-2.29,1.16-3.47Z"/></g><path class="cls-1" d="M80.41,57.94c-.49,.58-.82,.63-.91,.63-.26,0-.5-.33-.65-.65-.43-.92-.43-2.42,.33-3.33,.21-.25,.54-.55,.9-.55s.73,.28,.98,.73c-.16,1.07-.38,2.14-.65,3.17Z"/><path class="cls-1" d="M52.48,73.3c-.49,0-1.01-.36-1.54-1.08-1.15-1.55-1.06-4.01-.97-6.38,.06-1.57,.12-3.2-.19-4.59-.98-4.43-4.08-4.65-7.08-4.86-2.24-.16-3.55-1.08-3.9-2.75-.64-3.04,1.95-7.4,4.43-8.71,.21-.11,.46-.2,.73-.28,.51-.14,1.1-.22,1.67-.22,.31,0,.6,.02,.86,.07,.71,.11,.92,.34,1.33,.8,.25,.27,.56,.6,1.01,.93,.94,.68,2.96,1.15,4.91,1.15,1.28,0,3.56-.22,4.42-1.69,.38-.65,.43-1.57,.14-2.54-.3-.99-.88-1.79-1.57-2.13-.36-.17-.77-.26-1.22-.26-.72,0-1.45,.22-2.16,.42-.56,.17-1.15,.34-1.57,.34h-.08c-.58-.04-1.15-.26-1.76-.49-.91-.35-1.88-.71-3.01-.56-.78,.11-1.52,.55-2.23,.98-.5,.3-1.02,.61-1.47,.74-.28,.08-.5,.09-.69,.04-.05-.01-.09-.03-.13-.04,.27-.5,1.42-1.48,1.99-1.97,.78-.66,1.45-1.24,1.76-1.75,.16-.26,.16-.59,.02-.86-.03-.05-.05-.09-.09-.13,.22,.09,.47,.08,.69-.02,.73-.34,1.14-.84,1.54-1.37,.57-.76,.83-1.61,1.06-2.37,.3-1.01,.54-1.81,1.41-2.34,.53-.32,1.14-.47,1.92-.47,.68,0,1.4,.11,2.15,.23,.89,.14,1.81,.28,2.7,.23,2.34-.12,4.38-1.5,6.35-2.83,1.93-1.31,3.76-2.54,5.72-2.54,.22,0,.45,.02,.67,.05,3.64,3.09,6.56,7.02,8.47,11.37,.03,.25,.04,.48,.04,.68-.06,3.08,0,5.28,.22,7.61,.2,2.15-.19,2.64-2.14,3.99-.36,.25-.79,.62-1.23,1.01-.91,.79-2.28,1.98-3.09,1.98-.03,0-.06,0-.09,0-1.13-.17-2.41-2.05-3.44-3.55-.72-1.06-1.4-2.05-2.1-2.66-.85-.73-1.32-1-1.77-1-.32,0-.61,.14-.8,.39-.38,.49-.22,1.11,0,1.96,.13,.5,.27,1.06,.3,1.52,.05,1.07-.13,1.39-.21,1.47-.19,.2-.85,.21-1.55,.21-.29,0-.59,0-.9,.01-.05-.02-.13-.06-.18-.08-.19-.1-.43-.22-.72-.22-.38,0-.72,.21-.88,.53-.25,.47-.17,.61,.66,1.92,.22,.34,.54,.85,.62,1,.92,2.6-.47,5.13-1.82,7.58l-.3,.54c-.22,.41-.52,1.11-.9,2-1.14,2.69-3.81,9-6.04,9Z"/><path class="cls-1" d="M32.39,23.98s.01,.03,.02,.04c.18,.35,.49,.78,.8,1.23,.36,.51,.85,1.21,.95,1.52,.11,.38,.08,.51,.09,.51-.04,.05-.21,.15-.34,.23-.37,.22-.89,.53-1.31,1.16-.99,1.47-.58,2.25,.06,3.12,.19,.26,.39,.53,.56,.89,.53,1.09-.2,3.59-1.53,4.3-.13,.07-.22,.08-.27,.08-.17,0-.4-.1-.67-.22-.41-.18-.91-.4-1.58-.41-2.15,0-3.02,1.51-3.78,2.84-.08,.15-.17,.3-.26,.45q-.81,1.37-1.85,1.71c-.5,.16-1.66,.53-.62,6.47,.44,2.51,1.54,3.85,3.41,5.46l.34,.29c2.4,2.05,5.7,4.85,6.39,7.89,.36,1.58-.46,2.86-1.41,4.35-.38,.6-.77,1.21-1.1,1.87-1.13,2.31-.86,4.32-.38,6.37-.18-.15-.35-.29-.52-.44-2.39-2.11-3.74-4.71-4.39-8.41-.29-1.63-1-3.15-1.69-4.61-.87-1.86-1.7-3.61-1.61-5.45,.03-.59,.11-1.18,.18-1.75,.14-1.11,.29-2.25,.14-3.51-.15-1.22-.48-2.38-.8-3.51-.24-.86-.47-1.68-.63-2.51-.3-1.62-.29-3.36,.04-5.19,2.3-5.97,6.44-11.17,11.74-14.76Z"/><path class="cls-1" d="M28.51,47.11c-.26,.26-.44,.33-.51,.33s-.3-.21-.46-.73c-.3-.95-.09-1.84,.11-1.99,.02-.02,.06-.04,.09-.04,.14,0,.53,.31,.78,.91,.25,.61,.25,1.25,0,1.5Z"/><path class="cls-1" d="M61.49,71.2s-.08,.04-.11,.05c-.12-.53,.05-2.06,.79-3.6,.36-.75,.7-1.17,.92-1.36,.05,1.12-.89,4.34-1.61,4.91Z"/><path class="cls-1" d="M39.65,26.74c.24-.42,.46-.83,.65-1.21,.49-1,3.07-2.07,5.02-2.07,.18,0,.35,.01,.5,.03,.71,.1,.85,.44,.9,.55,.22,.53-.02,1.45-.57,2.19-.57,.77-1.53,1.23-2.55,1.72-.79,.38-1.61,.77-2.32,1.34-.1,.08-.2,.16-.31,.25-.51,.43-1.46,1.22-2.01,1.22-.06,0-.26,0-.48-.56-.32-.82,.5-2.29,1.16-3.47Z"/></svg>